<svg width="40" height="39" viewBox="0 0 40 39" fill="none" xmlns="http://www.w3.org/2000/svg">
<path d="M39.5713 19.5C39.5713 8.73045 30.8408 0 20.0713 0C9.30174 0 0.571289 8.73045 0.571289 19.5C0.571289 30.2696 9.30174 39 20.0713 39C30.8408 39 39.5713 30.2696 39.5713 19.5Z" fill="white"/>
<path d="M29.8511 12.8217C28.0621 11.3905 25.9154 10.6749 23.6493 10.5557L23.2915 10.9135C25.319 11.3905 27.108 12.3446 28.7777 13.6566C26.7502 12.5832 24.4841 11.8676 22.0988 11.6291C21.3832 11.5098 20.7869 11.5098 20.0713 11.5098C19.3557 11.5098 18.7593 11.5098 18.0438 11.6291C15.6584 11.8676 13.3924 12.5832 11.3649 13.6566C13.0346 12.3446 14.8236 11.3905 16.8511 10.9135L16.4933 10.5557C14.2272 10.6749 12.0804 11.3905 10.2915 12.8217C8.26395 16.6383 7.19056 20.9319 7.07129 25.3446C8.86025 27.2529 11.3649 28.4456 13.9888 28.4456C13.9888 28.4456 14.8236 27.4915 15.4199 26.6566C13.8695 26.2988 12.4383 25.4639 11.4841 24.152C12.319 24.6291 13.1538 25.1062 13.9888 25.4639C15.0621 25.941 16.1355 26.1796 17.2089 26.4181C18.1631 26.5373 19.1172 26.6566 20.0713 26.6566C21.0254 26.6566 21.9795 26.5373 22.9336 26.4181C24.007 26.1796 25.0804 25.941 26.1538 25.4639C26.9888 25.1062 27.8236 24.6291 28.6584 24.152C27.7043 25.4639 26.2731 26.2988 24.7227 26.6566C25.319 27.4915 26.1538 28.4456 26.1538 28.4456C28.7777 28.4456 31.2823 27.2529 33.0713 25.3446C32.952 20.9319 31.8786 16.6383 29.8511 12.8217ZM16.1355 23.1978C14.9429 23.1978 13.8695 22.1244 13.8695 20.8126C13.8695 19.5006 14.9429 18.4272 16.1355 18.4272C17.3282 18.4272 18.4016 19.5006 18.4016 20.8126C18.4016 22.1244 17.3282 23.1978 16.1355 23.1978ZM24.007 23.1978C22.8144 23.1978 21.741 22.1244 21.741 20.8126C21.741 19.5006 22.8144 18.4272 24.007 18.4272C25.1997 18.4272 26.2731 19.5006 26.2731 20.8126C26.2731 22.1244 25.1997 23.1978 24.007 23.1978Z" fill="#020202"/>
</svg>
