<svg width="16" height="20" viewBox="0 0 16 20" fill="none" xmlns="http://www.w3.org/2000/svg">
<path d="M2.77397 15.2869L0.668974 18.5369L0.892974 19.5999L1.95297 19.3729L4.05697 16.1249C3.60453 15.8855 3.17506 15.6049 2.77397 15.2869ZM11.686 14.1519C11.7 14.1229 11.709 14.0909 11.722 14.0599C11.775 13.9429 11.822 13.8259 11.86 13.7029C11.866 13.6809 11.869 13.6589 11.876 13.6389C11.915 13.5045 11.9477 13.3683 11.974 13.2309V13.2099C12.169 12.0409 11.829 10.7369 11.051 9.55889L12.161 7.84489C13.44 8.00789 14.546 7.68589 15.078 6.86289C16.001 5.43989 14.878 3.07089 12.573 1.56989C10.266 0.0678897 7.64997 0.00488961 6.72897 1.42589C6.19497 2.24989 6.35097 3.39289 7.02197 4.49889L5.90997 6.21289C4.52097 5.97989 3.19397 6.19689 2.20697 6.85289C2.20097 6.85489 2.19397 6.85689 2.18997 6.86089C2.07465 6.93929 1.96381 7.02409 1.85797 7.11489C1.84097 7.12889 1.82097 7.14189 1.80697 7.15589C1.71097 7.24072 1.62045 7.33157 1.53597 7.42789C1.51597 7.45189 1.48797 7.47289 1.46897 7.49789C1.36247 7.61851 1.26551 7.74723 1.17897 7.88289C-0.205026 10.0159 0.975974 13.2439 3.81197 15.0919C6.64997 16.9399 10.072 16.7059 11.453 14.5729C11.54 14.4379 11.62 14.2969 11.686 14.1519ZM10.871 4.19389C9.98397 3.61689 9.55097 2.70689 9.90597 2.15789C10.26 1.61089 11.267 1.63589 12.152 2.21289C13.041 2.78989 13.47 3.70189 13.117 4.24889C12.764 4.79589 11.759 4.77089 10.871 4.19389Z" fill="#DFBB00"/>
</svg>
