<svg width="15" height="15" viewBox="0 0 15 15" fill="none" xmlns="http://www.w3.org/2000/svg">
<path d="M7.15909 3.72468H8.57741V5.10792H7.15909V3.72468ZM7.15909 6.49115H8.57741V10.6409H7.15909V6.49115ZM7.86825 0.266602C3.95367 0.266602 0.776611 3.36504 0.776611 7.18277C0.776611 11.0005 3.95367 14.0989 7.86825 14.0989C11.7828 14.0989 14.9599 11.0005 14.9599 7.18277C14.9599 3.36504 11.7828 0.266602 7.86825 0.266602ZM7.86825 12.7157C4.74084 12.7157 2.19494 10.2328 2.19494 7.18277C2.19494 4.13274 4.74084 1.64983 7.86825 1.64983C10.9957 1.64983 13.5416 4.13274 13.5416 7.18277C13.5416 10.2328 10.9957 12.7157 7.86825 12.7157Z" fill="#999999"/>
</svg>
