<svg width="15" height="15" viewBox="0 0 15 15" fill="none" xmlns="http://www.w3.org/2000/svg">
<path d="M7.15982 3.72468H8.57815V5.10792H7.15982V3.72468ZM7.15982 6.49115H8.57815V10.6409H7.15982V6.49115ZM7.86898 0.266602C3.9544 0.266602 0.777344 3.36504 0.777344 7.18277C0.777344 11.0005 3.9544 14.0989 7.86898 14.0989C11.7836 14.0989 14.9606 11.0005 14.9606 7.18277C14.9606 3.36504 11.7836 0.266602 7.86898 0.266602ZM7.86898 12.7157C4.74157 12.7157 2.19567 10.2328 2.19567 7.18277C2.19567 4.13274 4.74157 1.64983 7.86898 1.64983C10.9964 1.64983 13.5423 4.13274 13.5423 7.18277C13.5423 10.2328 10.9964 12.7157 7.86898 12.7157Z" fill="#999999"/>
</svg>
