<svg width="30" height="30" viewBox="0 0 30 30" fill="none" xmlns="http://www.w3.org/2000/svg">
<path fill-rule="evenodd" clip-rule="evenodd" d="M15 0C6.67781 0 0 6.7275 0 15C0 23.2725 6.67781 30 15 30C23.2725 30 30 23.2725 30 15C30 6.7275 23.3222 0 15 0ZM18.0178 5.85938C18.1875 5.85938 18.3694 5.98406 18.3694 6.21094V6.27C18.3694 7.74469 18.0197 9.08625 18.0759 10.1072C18.1322 10.6181 18.2025 11.0269 18.4866 11.3672C18.7134 11.7075 19.0959 11.9297 19.8337 12.0994C20.0606 12.1556 20.0606 12.6291 19.8337 12.6853C19.0397 12.8559 18.4734 13.2319 18.0759 13.7991C17.6794 14.3091 17.3972 14.9972 17.2266 15.7913C16.8862 17.2087 16.8984 18.9159 16.7288 20.3906C17.5337 20.2187 18.3264 19.9935 19.1016 19.7166H19.1606C19.3875 19.6041 19.62 20.1009 19.3359 20.2153H19.2769C18.3131 20.4984 17.5894 20.7881 17.0212 21.2991C16.5112 21.8091 16.1719 22.5431 16.1719 23.8472C16.1733 23.8861 16.1667 23.9249 16.1525 23.9612C16.1382 23.9974 16.1167 24.0304 16.0891 24.0579C16.0616 24.0854 16.0287 24.107 15.9924 24.1212C15.9562 24.1355 15.9174 24.1421 15.8784 24.1406H14.1797C14.1408 24.1421 14.102 24.1355 14.0657 24.1212C14.0295 24.107 13.9965 24.0854 13.969 24.0579C13.9414 24.0304 13.9199 23.9974 13.9056 23.9612C13.8914 23.9249 13.8848 23.8861 13.8863 23.8472C13.8863 22.4859 13.5478 21.8091 13.0369 21.2991C12.5269 20.7881 11.7431 20.4984 10.7222 20.2144C10.4953 20.1019 10.5562 19.6584 10.8403 19.6584C10.8966 19.6584 10.8713 19.7166 10.9275 19.7166C11.7216 20.0569 12.5363 20.2772 13.3303 20.3906C13.2741 18.9159 13.2019 17.3278 12.8616 15.9666C12.4641 14.4919 11.7253 13.3097 10.1372 12.6853C9.90938 12.5728 9.91219 12.1566 10.1953 12.0994C10.9894 11.9869 11.4056 11.7666 11.6897 11.4253C11.9166 11.1422 12.0122 10.6762 12.0122 10.1663C12.0122 9.14437 11.6306 7.74656 11.6306 6.32812V6.21094C11.6306 6.0975 11.7225 5.9175 11.8359 5.9175C12.0066 5.86125 12.1303 5.98219 12.1875 6.15188C12.4144 7.57031 12.6403 8.64094 13.0369 9.49219C13.2638 10.0031 13.6088 10.4681 14.0625 10.7522C14.1759 10.4119 14.5153 10.1072 14.9119 10.1072C15.3094 10.1072 15.6478 10.4137 15.7613 10.8103C16.1588 10.5272 16.4456 10.1203 16.7288 9.60938C17.1825 8.75813 17.4703 7.51406 17.7534 6.15188C17.7534 5.98219 17.8472 5.85938 18.0178 5.85938ZM14.7947 13.7991C14.7384 14.9334 14.8003 16.3162 14.9709 18.0178C15.1462 16.6188 15.2048 15.2077 15.1462 13.7991H14.7947Z" fill="#020202"/>
</svg>
