<svg width="19" height="19" viewBox="0 0 19 19" fill="none" xmlns="http://www.w3.org/2000/svg">
<path d="M9.5 1.78125C5.23613 1.78125 1.78125 5.23613 1.78125 9.5C1.78125 13.7639 5.23613 17.2188 9.5 17.2188C13.7639 17.2188 17.2188 13.7639 17.2188 9.5C17.2188 5.23613 13.7639 1.78125 9.5 1.78125ZM9.5 16.5768C5.5998 16.5768 2.42324 13.4039 2.42324 9.5C2.42324 5.5998 5.59609 2.42324 9.5 2.42324C13.4002 2.42324 16.5768 5.59609 16.5768 9.5C16.5768 13.4002 13.4002 16.5768 9.5 16.5768Z" fill="white"/>
<path d="M9.63359 5.41797C8.03047 5.41797 7.13613 6.17129 7.125 7.72617H7.82266C7.80039 6.59805 8.39785 6.00059 9.6002 6.00059C10.4611 6.00059 11.1811 6.60176 11.1811 7.47754C11.1811 8.04531 10.873 8.50547 10.4611 8.89141C9.62246 9.66328 9.38496 10.2273 9.34414 11.285H10.0492C10.09 10.3275 10.0678 10.1457 10.9139 9.30703C11.4779 8.78008 11.875 8.25684 11.875 7.44414C11.875 6.175 10.8582 5.41797 9.63359 5.41797ZM9.65957 12.3314C9.31074 12.3314 9.02871 12.6098 9.02871 12.9549C9.02871 13.3 9.31074 13.582 9.65957 13.582C10.0084 13.582 10.2904 13.3037 10.2904 12.9549C10.2904 12.6098 10.0084 12.3314 9.65957 12.3314Z" fill="white"/>
</svg>
