<svg width="22" height="23" viewBox="0 0 22 23" fill="none" xmlns="http://www.w3.org/2000/svg">
<path fill-rule="evenodd" clip-rule="evenodd" d="M19.9888 6.791L19.3145 5.6209C18.744 4.63082 17.4798 4.28926 16.4884 4.85736C16.0164 5.13537 15.4533 5.21425 14.9232 5.07659C14.393 4.93894 13.9394 4.59606 13.6623 4.12357C13.4841 3.82325 13.3883 3.48118 13.3846 3.13196C13.4007 2.57207 13.1895 2.02952 12.7991 1.62789C12.4087 1.22627 11.8723 0.999769 11.3122 1H9.95368C9.40494 1 8.87881 1.21866 8.49172 1.60761C8.10463 1.99656 7.88849 2.52373 7.89113 3.07246C7.87487 4.20542 6.95174 5.1153 5.81867 5.11518C5.46945 5.11155 5.12738 5.01577 4.82706 4.83753C3.83562 4.26943 2.57143 4.61099 2.00097 5.60107L1.2771 6.791C0.707333 7.77984 1.04424 9.04324 2.03072 9.61709C2.67195 9.98729 3.06696 10.6715 3.06696 11.4119C3.06696 12.1523 2.67195 12.8365 2.03072 13.2067C1.04549 13.7767 0.708218 15.037 1.2771 16.0229L1.96131 17.2029C2.22859 17.6852 2.67704 18.0411 3.20743 18.1918C3.73782 18.3426 4.30641 18.2757 4.78739 18.0061C5.26023 17.7302 5.82368 17.6546 6.35251 17.7961C6.88134 17.9376 7.33173 18.2845 7.60357 18.7597C7.78181 19.0601 7.87759 19.4021 7.88122 19.7513C7.88122 20.8959 8.80909 21.8238 9.95368 21.8238H11.3122C12.4529 21.8238 13.3792 20.902 13.3846 19.7613C13.382 19.2108 13.5995 18.6821 13.9887 18.2929C14.378 17.9036 14.9067 17.6861 15.4571 17.6888C15.8055 17.6981 16.1462 17.7935 16.4487 17.9664C17.4376 18.5362 18.701 18.1993 19.2748 17.2128L19.9888 16.0229C20.2651 15.5485 20.341 14.9836 20.1995 14.4532C20.0581 13.9227 19.711 13.4706 19.2351 13.1968C18.7593 12.923 18.4122 12.4709 18.2708 11.9404C18.1293 11.41 18.2052 10.8451 18.4815 10.3707C18.6612 10.0569 18.9214 9.7968 19.2351 9.61709C20.2157 9.04355 20.5518 7.78754 19.9888 6.80092V6.791Z" stroke="white" stroke-width="1.5" stroke-linecap="round" stroke-linejoin="round"/>
<path d="M10.6378 14.2675C12.215 14.2675 13.4935 12.989 13.4935 11.4119C13.4935 9.83474 12.215 8.55621 10.6378 8.55621C9.06069 8.55621 7.78217 9.83474 7.78217 11.4119C7.78217 12.989 9.06069 14.2675 10.6378 14.2675Z" stroke="white" stroke-width="1.5" stroke-linecap="round" stroke-linejoin="round"/>
</svg>
