<svg width="39" height="39" viewBox="0 0 39 39" fill="none" xmlns="http://www.w3.org/2000/svg">
<path d="M19.5 6.7185e-08C15.6433 6.7185e-08 11.8731 1.14365 8.66639 3.28634C5.45963 5.42903 2.96027 8.47451 1.48436 12.0377C0.00844904 15.6008 -0.377716 19.5216 0.374696 23.3043C1.12711 27.0869 2.9843 30.5614 5.71143 33.2886C8.43855 36.0157 11.9131 37.8729 15.6957 38.6253C19.4784 39.3777 23.3992 38.9916 26.9623 37.5156C30.5255 36.0397 33.571 33.5404 35.7137 30.3336C37.8563 27.1269 39 23.3567 39 19.5C39.0002 16.9392 38.496 14.4034 37.5161 12.0374C36.5362 9.67147 35.0998 7.52173 33.2891 5.71094C31.4783 3.90016 29.3285 2.46381 26.9626 1.48392C24.5966 0.504025 22.0608 -0.000212509 19.5 6.7185e-08ZM25.7 29.5473C25.6271 29.7293 25.516 29.8936 25.3743 30.0292C25.2327 30.1647 25.0636 30.2684 24.8786 30.3333C24.6936 30.3983 24.4968 30.4229 24.3015 30.4055C24.1062 30.3881 23.9168 30.3292 23.7461 30.2327L18.4525 26.1194L15.055 29.2539C14.9762 29.3121 14.884 29.3496 14.7868 29.3629C14.6897 29.3762 14.5908 29.3648 14.4993 29.3298L15.1506 23.5023L15.1714 23.5189L15.1847 23.4038C15.1847 23.4038 24.7105 14.7312 25.0985 14.3617C25.4914 13.9931 25.3618 13.9132 25.3618 13.9132C25.3841 13.4636 24.6568 13.9132 24.6568 13.9132L12.0354 22.033L6.7792 20.2429C6.7792 20.2429 5.9719 19.9534 5.89585 19.3167C5.8159 18.6849 6.80551 18.3417 6.80551 18.3417L27.7037 10.0396C27.7037 10.0396 29.4216 9.27414 29.4216 10.5417L25.7 29.5473Z" fill="white"/>
</svg>
