<svg width="40" height="39" viewBox="0 0 40 39" fill="none" xmlns="http://www.w3.org/2000/svg">
<path d="M19.6424 38.9997C30.4119 38.9997 39.1422 30.2693 39.1422 19.4998C39.1422 8.73037 30.4119 0 19.6424 0C8.87295 0 0.142578 8.73037 0.142578 19.4998C0.142578 30.2693 8.87295 38.9997 19.6424 38.9997Z" fill="white"/>
<path d="M31.5863 14.0139C30.7356 14.3908 29.8331 14.6379 28.9091 14.747C29.8826 14.1648 30.6111 13.2484 30.9589 12.1688C30.0439 12.7117 29.0429 13.0941 27.999 13.2995C27.5628 12.8343 27.0357 12.4636 26.4503 12.2105C25.8649 11.9574 25.2338 11.8273 24.596 11.8281C22.0224 11.8281 19.935 13.9155 19.935 16.4891C19.935 16.8545 19.9764 17.2101 20.0563 17.5514C16.1826 17.3571 12.748 15.5016 10.4489 12.6808C10.0343 13.3922 9.81648 14.201 9.81767 15.0243C9.81767 16.641 10.6411 18.0683 11.8911 18.9039C11.1509 18.8811 10.427 18.681 9.78013 18.3203L9.77979 18.3794C9.77979 20.6378 11.3871 22.5214 13.5189 22.9493C13.1189 23.0585 12.7059 23.1135 12.2912 23.1131C11.9902 23.1131 11.6986 23.0842 11.4142 23.03C12.0072 24.8813 13.7282 26.229 15.7683 26.2669C14.1171 27.5628 12.078 28.2656 9.97896 28.2621C9.60355 28.2621 9.23162 28.2402 8.86768 28.1967C10.9985 29.5667 13.4788 30.2938 16.012 30.2911C24.5852 30.2911 29.2737 23.1888 29.2737 17.029C29.2737 16.827 29.2692 16.6257 29.2601 16.4262C30.173 15.7671 30.9608 14.9501 31.5863 14.0139Z" fill="#020202"/>
</svg>
