<svg width="36" height="36" viewBox="0 0 36 36" fill="none" xmlns="http://www.w3.org/2000/svg">
<path d="M4.5 10.5C4.5 9.70435 4.81607 8.94129 5.37868 8.37868C5.94129 7.81607 6.70435 7.5 7.5 7.5H28.5C29.2956 7.5 30.0587 7.81607 30.6213 8.37868C31.1839 8.94129 31.5 9.70435 31.5 10.5V13.5H25.5C24.3065 13.5 23.1619 13.9741 22.318 14.818C21.4741 15.6619 21 16.8065 21 18C21 19.1935 21.4741 20.3381 22.318 21.182C23.1619 22.0259 24.3065 22.5 25.5 22.5H31.5V25.5C31.5 26.2956 31.1839 27.0587 30.6213 27.6213C30.0587 28.1839 29.2956 28.5 28.5 28.5H7.5C6.70435 28.5 5.94129 28.1839 5.37868 27.6213C4.81607 27.0587 4.5 26.2956 4.5 25.5V10.5Z" fill="#020202"/>
<path fill-rule="evenodd" clip-rule="evenodd" d="M22.5 18C22.5 17.2044 22.8161 16.4413 23.3787 15.8787C23.9413 15.3161 24.7044 15 25.5 15H31.5C31.8978 15 32.2794 15.158 32.5607 15.4393C32.842 15.7206 33 16.1022 33 16.5V19.5C33 19.8978 32.842 20.2794 32.5607 20.5607C32.2794 20.842 31.8978 21 31.5 21H25.5C24.7044 21 23.9413 20.6839 23.3787 20.1213C22.8161 19.5587 22.5 18.7956 22.5 18ZM27 18C27 18.3978 26.842 18.7794 26.5607 19.0607C26.2794 19.342 25.8978 19.5 25.5 19.5C25.1022 19.5 24.7206 19.342 24.4393 19.0607C24.158 18.7794 24 18.3978 24 18C24 17.6022 24.158 17.2206 24.4393 16.9393C24.7206 16.658 25.1022 16.5 25.5 16.5C25.8978 16.5 26.2794 16.658 26.5607 16.9393C26.842 17.2206 27 17.6022 27 18Z" fill="#020202"/>
</svg>
